<svg class="uitk-icon" aria-hidden="true" viewBox="0 0 24 24" xmlns="http://www.w3.org/2000/svg" xmlns:xlink="http://www.w3.org/1999/xlink"><path fill-rule="evenodd" d="M18.692 2.086c.832-.18 1.873-.123 2.609.613s.793 1.777.613 2.61a4.97 4.97 0 0 1-1.331 2.396l-1.716 1.717 2.477 7.434a2.017 2.017 0 0 1-.487 2.064l-1.71 1.71a1.002 1.002 0 0 1-1.567-.193l-3.686-6.143-2.972 2.431.494 2.467a2.017 2.017 0 0 1-.552 1.822l-.692.693a1.001 1.001 0 0 1-1.417 0l-6.462-6.462a1.001 1.001 0 0 1 0-1.417l.693-.692a2.017 2.017 0 0 1 1.822-.552l2.467.494 2.432-2.973L3.56 6.417a1.001 1.001 0 0 1-.193-1.567l1.71-1.71c.54-.54 1.34-.729 2.065-.487l7.438 2.48 1.714-1.716c.67-.669 1.539-1.144 2.398-1.33zm-7.05 8.815-3.198 3.91a1.002 1.002 0 0 1-.972.348l-3.04-.607 5.016 5.015-.607-3.04a1.001 1.001 0 0 1 .347-.97l3.91-3.2 6.069-6.068a2.97 2.97 0 0 0 .79-1.405c.107-.496-.015-.712-.072-.769-.057-.056-.273-.179-.769-.071a2.97 2.97 0 0 0-1.405.79L11.643 10.9zm1.35-4.187L11.1 8.605 5.69 5.36l.804-.804a.014.014 0 0 1 .014-.003l6.484 2.161zm2.4 6.183 1.891-1.892 2.161 6.484c.002.005 0 .01-.003.014l-.803.804-3.246-5.41z" clip-rule="evenodd"></path></svg>