<svg class="uitk-icon uitk-field-icon" aria-hidden="true" viewBox="0 0 24 24" xmlns="http://www.w3.org/2000/svg" xmlns:xlink="http://www.w3.org/1999/xlink"><path d="M7 12a1 1 0 0 0-1 1v2a1 1 0 0 0 1 1h2a1 1 0 0 0 1-1v-2a1 1 0 0 0-1-1H7z"></path><path fill-rule="evenodd" d="M8 4h8V2.5a.5.5 0 0 1 .5-.5h1a.5.5 0 0 1 .5.5V4h1a3 3 0 0 1 3 3v12a3 3 0 0 1-3 3H5a3 3 0 0 1-3-3V7a3 3 0 0 1 3-3h1V2.5a.5.5 0 0 1 .5-.5h1a.5.5 0 0 1 .5.5V4zM4 7a1 1 0 0 1 1-1h14a1 1 0 0 1 1 1v1H4V7zm0 3h16v9a1 1 0 0 1-1 1H5a1 1 0 0 1-1-1v-9z" clip-rule="evenodd"></path></svg>