<svg class="uitk-icon" fill="#1668e3" aria-label="Close the dialog" role="img" viewBox="0 0 24 24" xmlns="http://www.w3.org/2000/svg" xmlns:xlink="http://www.w3.org/1999/xlink"><title>Close the dialog</title><path d="M5.146 17.44a.5.5 0 0 0 0 .706l.708.708a.5.5 0 0 0 .707 0L12 13.414l5.44 5.44a.5.5 0 0 0 .706 0l.708-.708a.5.5 0 0 0 0-.707L13.414 12l5.44-5.44a.5.5 0 0 0 0-.706l-.707-.708a.5.5 0 0 0-.708 0L12 10.586l-5.44-5.44a.5.5 0 0 0-.706 0l-.708.708a.5.5 0 0 0 0 .707L10.586 12l-5.44 5.44z"></path></svg>