<svg class="uitk-icon uitk-field-icon" aria-hidden="true" viewBox="0 0 24 24" xmlns="http://www.w3.org/2000/svg" xmlns:xlink="http://www.w3.org/1999/xlink"><path fill-rule="evenodd" d="M7.953 5.552C8.992 4.592 10.388 4 12 4c1.612 0 3.008.592 4.047 1.552l.007.006A5.88 5.88 0 0 1 18 9.93c0 1.557-.664 3.032-1.641 4.462-.98 1.433-2.418 3.025-4.359 4.774-1.941-1.75-3.38-3.341-4.359-4.774C6.661 12.958 6 11.492 6 9.929a5.88 5.88 0 0 1 1.946-4.37l.007-.007zM12 2c-2.12 0-3.998.785-5.4 2.08A7.88 7.88 0 0 0 4 9.93c0 2.14.908 4.006 1.99 5.59 1.216 1.778 3.001 3.69 5.354 5.735a1 1 0 0 0 1.312 0c2.353-2.045 4.138-3.957 5.354-5.735C19.09 13.938 20 12.063 20 9.93a7.88 7.88 0 0 0-2.6-5.85C15.999 2.785 14.12 2 12 2zm0 10a2 2 0 1 0 0-4 2 2 0 0 0 0 4z" clip-rule="evenodd"></path></svg>