<svg class="uitk-icon uitk-icon-large" aria-label="Communication Center icon" role="img" viewBox="0 0 24 24" xmlns="http://www.w3.org/2000/svg" xmlns:xlink="http://www.w3.org/1999/xlink"><title>Communication Center icon</title><path d="M7.5 10a.5.5 0 0 1-.5-.5v-1a.5.5 0 0 1 .5-.5h9a.5.5 0 0 1 .5.5v1a.5.5 0 0 1-.5.5h-9zm0 4a.5.5 0 0 1-.5-.5v-1a.5.5 0 0 1 .5-.5h9a.5.5 0 0 1 .5.5v1a.5.5 0 0 1-.5.5h-9z"></path><path fill-rule="evenodd" d="M8.106 20.553C7.779 21.206 8.27 22 9 22a6.993 6.993 0 0 0 5.745-3H19a3 3 0 0 0 3-3V6a3 3 0 0 0-3-3H5a3 3 0 0 0-3 3v10a3 3 0 0 0 3 3h3.727a8.66 8.66 0 0 1-.621 1.553zM4 6a1 1 0 0 1 1-1h14a1 1 0 0 1 1 1v10a1 1 0 0 1-1 1h-4.803a1 1 0 0 0-.865.5 5.014 5.014 0 0 1-2.737 2.24c.16-.53.273-1.072.339-1.622A1.01 1.01 0 0 0 9.94 17H5a1 1 0 0 1-1-1V6z" clip-rule="evenodd"></path></svg>