<svg fill="#1668e3" aria-label="Swap origin and destination values" role="img" viewBox="0 0 24 24" xmlns="http://www.w3.org/2000/svg" xmlns:xlink="http://www.w3.org/1999/xlink"><title>Swap origin and destination values</title><path d="M6.293 4.293 3.146 7.439A.5.5 0 0 0 3 7.793v1.914c0 .256.318.384.497.21L6 7.414V18.5a.5.5 0 0 0 .5.5h1a.5.5 0 0 0 .5-.5V7.414l2.502 2.502c.18.175.498.047.498-.209V7.793a.5.5 0 0 0-.146-.354L7.707 4.293a1 1 0 0 0-1.414 0zm7.207 9.792 2.5 2.5V5.5a.5.5 0 0 1 .5-.5h1a.5.5 0 0 1 .5.5v11.086l2.5-2.5c.178-.178.5-.05.5.207v1.914a.5.5 0 0 1-.146.354l-3.147 3.146a1 1 0 0 1-1.414 0l-3.147-3.146a.5.5 0 0 1-.146-.354v-1.914c0-.257.321-.385.5-.208z"></path></svg>