<svg xmlns="http://www.w3.org/2000/svg" fill="none" viewBox="0 0 48 48"><path fill="#337197" d="M5.34 20.508a1 1 0 0 0-.37 1.344l3.272 5.951a3 3 0 0 1 2.884 5.245l1.899 3.454a3 3 0 0 0 4.129 1.153l12.07-6.969-.5-.866a1 1 0 0 1 .366-1.366l.866-.5a1 1 0 0 1 1.366.366l.5.866 12.124-7a3 3 0 0 0 1.098-4.098l-2-3.464a3 3 0 0 1-3-5.196l-2.49-4.312a3 3 0 0 0-4.116-1.088L5.34 20.508Z"/><path fill="#191E3B" d="M11.321 17 5.34 20.508a1 1 0 0 0-.37 1.345l3.272 5.95a3 3 0 0 1 2.884 5.246l1.899 3.454a3 3 0 0 0 4.129 1.152l12.07-6.968-.5-.866a1 1 0 0 1 .365-1.366l.866-.5a1 1 0 0 1 1.366.366l.5.866 12.125-7a3 3 0 0 0 1.098-4.098L44.415 17H11.321Z"/><path fill="#94B6CC" d="M7 20a3 3 0 0 0-3 3v5a3 3 0 1 1 0 6v4a3 3 0 0 0 3 3h14v-1.5a.5.5 0 0 1 .5-.5h2a.5.5 0 0 1 .5.5V41h14a3 3 0 0 0 3-3v-4a3 3 0 1 1 0-6v-5a3 3 0 0 0-3-3H7Z"/><rect width="3" height="3" x="21" y="24" fill="#191E3B" rx=".5"/><rect width="3" height="3" x="21" y="29" fill="#191E3B" rx=".5"/><rect width="3" height="3" x="21" y="34" fill="#191E3B" rx=".5"/><rect width="3" height="3" x="21" y="19" fill="#191E3B" rx=".5"/><path fill="#FDDB32" fill-rule="evenodd" d="M17.49 9a.5.5 0 0 1-.5-.5v-4a.5.5 0 0 1 .5-.5h1a.5.5 0 0 1 .5.5v4a.5.5 0 0 1-.5.5h-1ZM9.08 14.433a.5.5 0 0 1-.683.183l-3.464-2a.5.5 0 0 1-.183-.683l.5-.866a.5.5 0 0 1 .683-.183l3.464 2a.5.5 0 0 1 .183.683l-.5.866ZM12.557 10.59a.5.5 0 0 1-.683-.183l-2-3.464a.5.5 0 0 1 .183-.683l.867-.5a.5.5 0 0 1 .683.183l2 3.464a.5.5 0 0 1-.183.683l-.867.5Z" clip-rule="evenodd"/></svg>